PathFileType	4	(X/Y/Z)	/Users/itak/Documents/Research/Walk-IL/dataset/trc/00408_00012.trc
DataRate	CameraRate	NumFrames	NumMarkers	Units	OrigDataRate	OrigDataStartFrame	OrigNumFrames
100.000000	100.000000	4	55	mm	100.000000	420	673
Frame#	Time	RPSI			LPSI			L3			STRN			T10			C7			CLAV			RBAK			LBAK			LSHO			LUPA			LAEL			LAOL			LWTS			LWPS			LFRA			LHPS			LHTS			RSHO			RUPA			RAEL			RAOL			RWTS			RWPS			RFRA			RIFD			RHPS			RBHD			LFHD			RFHD			LBHD			LHIP			RHIP			RASI			LASI			LKNE			LTHI			LANK			LTIP			LTOE			LMT1			LMT5			LHEE			RKNE			RTHI			RANK			RTIP			RTOE			RMT1			RMT5			RHEE			RHTS			LIFD			*53			*54			
		X1	Y1	Z1	X2	Y2	Z2	X3	Y3	Z3	X4	Y4	Z4	X5	Y5	Z5	X6	Y6	Z6	X7	Y7	Z7	X8	Y8	Z8	X9	Y9	Z9	X10	Y10	Z10	X11	Y11	Z11	X12	Y12	Z12	X13	Y13	Z13	X14	Y14	Z14	X15	Y15	Z15	X16	Y16	Z16	X17	Y17	Z17	X18	Y18	Z18	X19	Y19	Z19	X20	Y20	Z20	X21	Y21	Z21	X22	Y22	Z22	X23	Y23	Z23	X24	Y24	Z24	X25	Y25	Z25	X26	Y26	Z26	X27	Y27	Z27	X28	Y28	Z28	X29	Y29	Z29	X30	Y30	Z30	X31	Y31	Z31	X32	Y32	Z32	X33	Y33	Z33	X34	Y34	Z34	X35	Y35	Z35	X36	Y36	Z36	X37	Y37	Z37	X38	Y38	Z38	X39	Y39	Z39	X40	Y40	Z40	X41	Y41	Z41	X42	Y42	Z42	X43	Y43	Z43	X44	Y44	Z44	X45	Y45	Z45	X46	Y46	Z46	X47	Y47	Z47	X48	Y48	Z48	X49	Y49	Z49	X50	Y50	Z50	X51	Y51	Z51	X52	Y52	Z52	X53	Y53	Z53	X54	Y54	Z54	X55	Y55	Z55	

421	4.2	279.4113464355469	959.3843383789062	-690.7861328125	349.3548278808594	968.1842041015625	-800.3143310546875	313.4367980957031	1048.621459960938	-739.8001098632812	503.9312744140625	1201.0673828125	-585.0597534179688	312.2944030761719	1152.100708007812	-745.2964477539062	344.6567993164062	1400.73486328125	-717.1768798828125	459.7851867675781	1320.983642578125	-613.646240234375	273.2023315429688	1254.251953125	-708.0330810546875	399.8988342285156	1372.066528320312	-806.8770751953125	498.2676086425781	1389.369262695312	-786.5073852539062	525.23779296875	1283.40234375	-870.3694458007812	564.8274536132812	1095.27001953125	-910.6046142578125	484.9921569824219	1063.244995117188	-895.9720458984375	677.3004760742188	910.9391479492188	-835.9163818359375	664.0103759765625	891.5042114257812	-915.0520629882812	605.52978515625	1000.516784667969	-918.57666015625	704.30615234375	820.3636474609375	-908.232421875	736.8423461914062	831.5376586914062	-853.6520385742188	283.9855651855469	1370.371215820312	-564.8594970703125	228.5281982421875	1308.3515625	-541.5422973632812	173.0904541015625	1051.076538085938	-557.5161743164062	229.6659545898438	1047.326782226562	-634.1611328125	273.8083801269531	824.8975219726562	-513.6965942382812	202.2370452880859	817.633544921875	-495.7770080566406	173.5579071044922	983.4365844726562	-534.4691162109375	252.020751953125	651.4027709960938	-530.6433715820312	196.9965667724609	728.8118286132812	-502.3276672363281	313.4784545898438	1576.939086914062	-612.4287109375	511.2456359863281	1586.34521484375	-601.6665649414062	415.8036499023438	1574.25634765625	-525.6504516601562	426.3302612304688	1590.0849609375	-723.9356079101562	488.5716857910156	968.3067016601562	-844.4527587890625	284.1312561035156	933.664306640625	-549.3114624023438	423.2200317382812	951.951904296875	-525.5390014648438	563.033203125	964.4969482421875	-748.6649169921875	552.4271240234375	477.1717224121094	-831.97216796875	543.8778686523438	623.9224853515625	-839.9219360351562	452.2367248535156	41.79767990112305	-900.5432739257812	511.9645385742188	247.0878753662109	-875.8162841796875	606.1359252929688	37.72224426269531	-735.6452026367188	517.4405517578125	35.28570175170898	-749.5442504882812	567.11474609375	39.4789924621582	-843.7574462890625	389.1561889648438	37.26095199584961	-874.4269409179688	501.9230041503906	490.9220581054688	-481.0563049316406	410.920166015625	731.5390625	-484.9175109863281	345.3447265625	143.9449920654297	-675.7771606445312	486.1850891113281	372.1570129394531	-522.4766845703125	498.6521606445312	48.06491851806641	-645.8922729492188	466.7713928222656	88.57925415039062	-703.4262084960938	393.2535095214844	87.97280883789062	-632.888427734375	326.8373107910156	174.8298797607422	-758.3176879882812	265.67822265625	718.7507934570312	-499.2097473144531	749.266357421875	746.4805908203125	-854.347412109375	nan	nan	nan	nan	nan	nan	
422	4.21	286.459716796875	959.782958984375	-689.03564453125	358.0487365722656	968.5330810546875	-797.3971557617188	321.0513000488281	1048.848999023438	-737.8607177734375	510.48193359375	1200.750366210938	-580.099609375	320.1690979003906	1152.418823242188	-743.3101196289062	353.3357543945312	1400.801635742188	-713.8488159179688	466.8192749023438	1320.786987304688	-608.94091796875	281.0057067871094	1254.614501953125	-706.6136474609375	409.8584289550781	1372.2314453125	-802.9678955078125	507.7424011230469	1389.636962890625	-781.1594848632812	535.7910766601562	1283.89208984375	-864.8716430664062	577.1102905273438	1096.649047851562	-905.306884765625	497.4923400878906	1063.476684570312	-891.3523559570312	693.5264282226562	917.456298828125	-826.5260620117188	682.5902709960938	896.370849609375	-905.5886840820312	620.3180541992188	1003.456481933594	-911.8672485351562	725.001953125	826.4318237304688	-896.49072265625	755.83740234375	839.5619506835938	-841.328125	290.2041015625	1370.009887695312	-562.7098388671875	234.1234436035156	1308.276611328125	-540.7440795898438	177.3655090332031	1051.604125976562	-560.3914184570312	235.8586730957031	1048.023803710938	-635.5301513671875	272.873046875	823.1942749023438	-517.4512939453125	200.8224487304688	816.832275390625	-501.3414306640625	176.1380767822266	983.8218994140625	-538.0250854492188	249.1607818603516	650.3526000976562	-537.645751953125	194.4288940429688	728.0733642578125	-509.3883056640625	321.2217102050781	1576.948608398438	-609.0283203125	518.7659301757812	1585.722290039062	-595.64794921875	422.3086547851562	1573.708740234375	-520.9544677734375	435.5279235839844	1590.056030273438	-719.0314331054688	497.3980712890625	968.1508178710938	-840.1427612304688	290.0502014160156	934.732421875	-547.4010620117188	428.6800842285156	952.4146728515625	-522.1583251953125	571.1373901367188	963.6856079101562	-743.5846557617188	554.9880981445312	476.6461486816406	-831.56298828125	548.3272094726562	623.4713745117188	-837.6715698242188	452.2423095703125	41.90838241577148	-900.4594116210938	512.8663940429688	246.8484191894531	-875.8599243164062	605.93701171875	37.3255500793457	-735.953125	517.385986328125	35.16305923461914	-749.488525390625	567.0477294921875	39.36431884765625	-843.7064208984375	389.2048034667969	37.32967376708984	-874.4253540039062	508.6629028320312	493.1482543945312	-472.7171325683594	415.6396484375	733.6806640625	-479.4028930664062	370.3995361328125	136.1924133300781	-664.3323974609375	497.3355712890625	372.7898254394531	-512.2410278320312	525.9620971679688	47.72563552856445	-624.631103515625	494.9846801757812	84.84358215332031	-684.8985595703125	418.771240234375	84.00334930419922	-617.4950561523438	354.2138061523438	163.4270782470703	-748.5762939453125	262.6942443847656	717.053955078125	-504.656494140625	770.745849609375	754.9255981445312	-840.001708984375	nan	nan	nan	nan	nan	nan	
423	4.22	293.4246520996094	959.9381103515625	-687.2850341796875	366.7744140625	968.7080688476562	-794.46044921875	328.6055297851562	1048.849731445312	-735.8309326171875	516.97802734375	1200.114624023438	-575.0278930664062	327.8257141113281	1152.521118164062	-741.2662353515625	361.977294921875	1400.6298828125	-710.3783569335938	473.8257446289062	1320.259887695312	-604.14013671875	288.7340087890625	1254.73876953125	-705.0112915039062	419.7487487792969	1372.111450195312	-798.8653564453125	517.1907348632812	1389.56884765625	-775.7035522460938	546.2235107421875	1283.994506835938	-859.2496948242188	589.025390625	1097.678344726562	-899.95166015625	509.6441040039062	1063.357055664062	-886.6480712890625	709.200927734375	923.9474487304688	-817.026611328125	700.5416870117188	901.153076171875	-895.9069213867188	634.6104736328125	1006.17578125	-905.0335083007812	744.9444580078125	832.496337890625	-884.4031372070312	774.0556030273438	847.543701171875	-828.793701171875	296.4707336425781	1369.421997070312	-560.4029541015625	239.7620544433594	1307.972900390625	-539.7984619140625	181.7265777587891	1051.960327148438	-563.03759765625	242.1265563964844	1048.4716796875	-636.664794921875	272.0599060058594	821.5020751953125	-521.0288696289062	199.6025543212891	816.0733032226562	-506.7265319824219	178.8706665039062	984.0888061523438	-541.3711547851562	246.54345703125	649.3711547851562	-544.1763305664062	192.1613922119141	727.392333984375	-516.1210327148438	328.8577880859375	1576.656372070312	-605.528076171875	526.1434936523438	1584.920166015625	-589.5928955078125	428.7317504882812	1572.939331054688	-516.194091796875	444.5567626953125	1589.794067382812	-714.0345458984375	506.2439880371094	967.8070678710938	-835.746826171875	295.9437561035156	935.3982543945312	-545.5604858398438	434.0711669921875	952.4305419921875	-518.5946655273438	579.1466064453125	962.6598510742188	-738.3162841796875	557.6722412109375	476.0824279785156	-830.9972534179688	552.7650146484375	622.7913818359375	-835.2152099609375	452.2414855957031	42.00484466552734	-900.3936157226562	513.8870849609375	246.5886383056641	-875.7548828125	605.7523193359375	36.97564697265625	-736.2318725585938	517.4019165039062	35.10712814331055	-749.4324951171875	567.0026245117188	39.21766662597656	-843.6766357421875	389.2721862792969	37.40656280517578	-874.4298095703125	515.0437622070312	494.8255615234375	-464.5807800292969	420.027587890625	735.2433471679688	-474.1288452148438	395.2866516113281	128.2415924072266	-651.4449462890625	508.1413879394531	373.0155639648438	-501.8438110351562	552.3884887695312	47.49703216552734	-602.235107421875	522.5050048828125	81.06847381591797	-665.1227416992188	443.8074645996094	80.06683349609375	-600.7932739257812	381.3733520507812	151.8487854003906	-737.2271118164062	259.8390502929688	715.371337890625	-509.8954772949219	791.3427124023438	763.589111328125	-825.3043212890625	nan	nan	nan	nan	nan	nan	
424	4.23	300.2969665527344	959.8356323242188	-685.4911499023438	375.5001220703125	968.685546875	-791.4743041992188	336.1145935058594	1048.625610351562	-733.666015625	523.4065551757812	1199.172119140625	-569.84814453125	335.2835083007812	1152.407958984375	-739.1039428710938	370.5765380859375	1400.22900390625	-706.766845703125	480.7978515625	1319.425537109375	-599.2411499023438	296.4991455078125	1254.61474609375	-703.1929931640625	429.5285949707031	1371.713012695312	-794.5728149414062	526.6149291992188	1389.1845703125	-770.1306762695312	556.5558471679688	1283.734741210938	-853.49853515625	600.5742797851562	1098.350341796875	-894.5112915039062	521.4495239257812	1062.901977539062	-881.8472900390625	724.3050537109375	930.3796997070312	-807.4309692382812	717.8272705078125	905.8306884765625	-886.0200805664062	648.3931274414062	1008.644653320312	-898.0552978515625	764.1094360351562	838.5758056640625	-872.0423583984375	791.5045776367188	855.5057373046875	-816.1350708007812	302.7863159179688	1368.626342773438	-557.9397583007812	245.4511566162109	1307.445556640625	-538.7127075195312	186.2023162841797	1052.145141601562	-565.4424438476562	248.5083923339844	1048.67822265625	-637.5396118164062	271.4112854003906	819.8140258789062	-524.369873046875	198.5864868164062	815.353515625	-511.9251708984375	181.758544921875	984.2315063476562	-544.4951171875	244.137451171875	648.44140625	-550.2249145507812	190.1576995849609	726.779052734375	-522.5316772460938	336.385986328125	1576.0791015625	-601.9293823242188	533.3890380859375	1583.94873046875	-583.5055541992188	435.081298828125	1571.966186523438	-511.3697814941406	453.4211730957031	1589.300537109375	-708.9464111328125	515.0795288085938	967.2675170898438	-831.2631225585938	301.8184509277344	935.595947265625	-543.74658203125	439.3941345214844	951.9963989257812	-514.8331909179688	587.0731201171875	961.4496459960938	-732.8934936523438	560.478759765625	475.4686279296875	-830.212890625	557.2036743164062	621.8648681640625	-832.5465698242188	452.2330627441406	42.0921516418457	-900.3345947265625	515.0298461914062	246.3263397216797	-875.458984375	605.6063842773438	36.70732116699219	-736.4593505859375	517.4597778320312	35.08478546142578	-749.3776245117188	566.960205078125	39.04304504394531	-843.666015625	389.34912109375	37.49229431152344	-874.4326171875	521.1347045898438	495.9518432617188	-456.6573181152344	424.1339721679688	736.2146606445312	-469.1092224121094	419.9216918945312	120.1998443603516	-637.0492553710938	518.671875	372.8616943359375	-491.2887573242188	577.9666137695312	47.44909286499023	-578.8678588867188	549.2835693359375	77.35411834716797	-644.1865234375	468.3468933105469	76.23940277099609	-582.8074340820312	408.1276550292969	140.2005462646484	-724.1845092773438	257.1469116210938	713.6885375976562	-514.884521484375	811.1253051757812	772.4887084960938	-810.4234008789062	nan	nan	nan	nan	nan	nan	
